<mxfile host="app.diagrams.net" modified="2024-01-31T18:59:35.188Z" agent="Mozilla/5.0 (Macintosh; Intel Mac OS X 10_15_7) AppleWebKit/537.36 (KHTML, like Gecko) Chrome/120.0.0.0 Safari/537.36" etag="a0r5ktagv40EMUlL_SEE" version="23.1.0" type="github">
  <diagram id="C5RBs43oDa-KdzZeNtuy" name="Page-1">
    <mxGraphModel dx="1060" dy="711" grid="1" gridSize="10" guides="1" tooltips="1" connect="1" arrows="1" fold="1" page="1" pageScale="1" pageWidth="827" pageHeight="1169" math="0" shadow="0">
      <root>
        <mxCell id="WIyWlLk6GJQsqaUBKTNV-0" />
        <mxCell id="WIyWlLk6GJQsqaUBKTNV-1" parent="WIyWlLk6GJQsqaUBKTNV-0" />
        <mxCell id="__7aa9Ticv8BTrV1trAX-0" value="NumStorage" style="swimlane;fontStyle=0;childLayout=stackLayout;horizontal=1;startSize=30;horizontalStack=0;resizeParent=1;resizeParentMax=0;resizeLast=0;collapsible=1;marginBottom=0;whiteSpace=wrap;html=1;fontSize=9;fontFamily=Verdana;" parent="WIyWlLk6GJQsqaUBKTNV-1" vertex="1">
          <mxGeometry x="190" y="40" width="140" height="90" as="geometry" />
        </mxCell>
        <mxCell id="__7aa9Ticv8BTrV1trAX-1" value="# number: List" style="text;strokeColor=none;fillColor=none;align=left;verticalAlign=middle;spacingLeft=4;spacingRight=4;overflow=hidden;points=[[0,0.5],[1,0.5]];portConstraint=eastwest;rotatable=0;whiteSpace=wrap;html=1;fontSize=9;fontFamily=Verdana;" parent="__7aa9Ticv8BTrV1trAX-0" vertex="1">
          <mxGeometry y="30" width="140" height="30" as="geometry" />
        </mxCell>
        <mxCell id="__7aa9Ticv8BTrV1trAX-2" value="# top: int" style="text;strokeColor=none;fillColor=none;align=left;verticalAlign=middle;spacingLeft=4;spacingRight=4;overflow=hidden;points=[[0,0.5],[1,0.5]];portConstraint=eastwest;rotatable=0;whiteSpace=wrap;html=1;perimeterSpacing=4;fontSize=9;fontFamily=Verdana;" parent="__7aa9Ticv8BTrV1trAX-0" vertex="1">
          <mxGeometry y="60" width="140" height="30" as="geometry" />
        </mxCell>
        <mxCell id="__7aa9Ticv8BTrV1trAX-9" value="SymbolStorage" style="swimlane;fontStyle=0;childLayout=stackLayout;horizontal=1;startSize=30;horizontalStack=0;resizeParent=1;resizeParentMax=0;resizeLast=0;collapsible=1;marginBottom=0;whiteSpace=wrap;html=1;fontSize=9;fontFamily=Verdana;" parent="WIyWlLk6GJQsqaUBKTNV-1" vertex="1">
          <mxGeometry x="520" y="40" width="140" height="90" as="geometry" />
        </mxCell>
        <mxCell id="__7aa9Ticv8BTrV1trAX-10" value="# symbol: List" style="text;strokeColor=none;fillColor=none;align=left;verticalAlign=middle;spacingLeft=4;spacingRight=4;overflow=hidden;points=[[0,0.5],[1,0.5]];portConstraint=eastwest;rotatable=0;whiteSpace=wrap;html=1;fontSize=9;fontFamily=Verdana;" parent="__7aa9Ticv8BTrV1trAX-9" vertex="1">
          <mxGeometry y="30" width="140" height="30" as="geometry" />
        </mxCell>
        <mxCell id="__7aa9Ticv8BTrV1trAX-11" value="# top: int" style="text;strokeColor=none;fillColor=none;align=left;verticalAlign=middle;spacingLeft=4;spacingRight=4;overflow=hidden;points=[[0,0.5],[1,0.5]];portConstraint=eastwest;rotatable=0;whiteSpace=wrap;html=1;fontSize=9;fontFamily=Verdana;" parent="__7aa9Ticv8BTrV1trAX-9" vertex="1">
          <mxGeometry y="60" width="140" height="30" as="geometry" />
        </mxCell>
        <mxCell id="zj9nEusKQUSDWfUNJ4dz-2" value="" style="endArrow=none;dashed=1;html=1;rounded=0;exitX=0;exitY=0;exitDx=0;exitDy=0;entryX=0.462;entryY=0.914;entryDx=0;entryDy=0;entryPerimeter=0;fontSize=9;fontFamily=Verdana;" parent="WIyWlLk6GJQsqaUBKTNV-1" source="zj9nEusKQUSDWfUNJ4dz-4" target="__7aa9Ticv8BTrV1trAX-2" edge="1">
          <mxGeometry width="50" height="50" relative="1" as="geometry">
            <mxPoint x="272.1600000000001" y="167.84000000000003" as="sourcePoint" />
            <mxPoint x="270" y="130" as="targetPoint" />
          </mxGeometry>
        </mxCell>
        <mxCell id="zj9nEusKQUSDWfUNJ4dz-3" value="" style="endArrow=none;dashed=1;html=1;rounded=0;exitX=1;exitY=0;exitDx=0;exitDy=0;entryX=0.486;entryY=1.133;entryDx=0;entryDy=0;entryPerimeter=0;fontSize=9;fontFamily=Verdana;" parent="WIyWlLk6GJQsqaUBKTNV-1" source="zj9nEusKQUSDWfUNJ4dz-4" target="__7aa9Ticv8BTrV1trAX-11" edge="1">
          <mxGeometry width="50" height="50" relative="1" as="geometry">
            <mxPoint x="542" y="168" as="sourcePoint" />
            <mxPoint x="540" y="130" as="targetPoint" />
          </mxGeometry>
        </mxCell>
        <mxCell id="zj9nEusKQUSDWfUNJ4dz-4" value="Calculator" style="swimlane;fontStyle=0;childLayout=stackLayout;horizontal=1;startSize=30;horizontalStack=0;resizeParent=1;resizeParentMax=0;resizeLast=0;collapsible=1;marginBottom=0;whiteSpace=wrap;html=1;fontSize=9;fontFamily=Verdana;" parent="WIyWlLk6GJQsqaUBKTNV-1" vertex="1">
          <mxGeometry x="344" y="210" width="150" height="490" as="geometry" />
        </mxCell>
        <mxCell id="zj9nEusKQUSDWfUNJ4dz-5" value="# data: NumStorage" style="text;strokeColor=none;fillColor=none;align=left;verticalAlign=middle;spacingLeft=4;spacingRight=4;overflow=hidden;points=[[0,0.5],[1,0.5]];portConstraint=eastwest;rotatable=0;whiteSpace=wrap;html=1;fontSize=9;fontFamily=Verdana;" parent="zj9nEusKQUSDWfUNJ4dz-4" vertex="1">
          <mxGeometry y="30" width="150" height="30" as="geometry" />
        </mxCell>
        <mxCell id="zj9nEusKQUSDWfUNJ4dz-6" value="# symbol: SymbolStorage" style="text;strokeColor=none;fillColor=none;align=left;verticalAlign=middle;spacingLeft=4;spacingRight=4;overflow=hidden;points=[[0,0.5],[1,0.5]];portConstraint=eastwest;rotatable=0;whiteSpace=wrap;html=1;fontSize=9;fontFamily=Verdana;" parent="zj9nEusKQUSDWfUNJ4dz-4" vertex="1">
          <mxGeometry y="60" width="150" height="30" as="geometry" />
        </mxCell>
        <mxCell id="zj9nEusKQUSDWfUNJ4dz-15" value="" style="endArrow=none;html=1;rounded=0;fontFamily=Verdana;exitX=-0.004;exitY=0.003;exitDx=0;exitDy=0;exitPerimeter=0;" parent="zj9nEusKQUSDWfUNJ4dz-4" edge="1" source="zj9nEusKQUSDWfUNJ4dz-12">
          <mxGeometry width="50" height="50" relative="1" as="geometry">
            <mxPoint x="140" y="90" as="sourcePoint" />
            <mxPoint y="90" as="targetPoint" />
          </mxGeometry>
        </mxCell>
        <mxCell id="zj9nEusKQUSDWfUNJ4dz-12" value="+ init_operate_num()" style="text;strokeColor=none;fillColor=none;align=left;verticalAlign=middle;spacingLeft=4;spacingRight=4;overflow=hidden;points=[[0,0.5],[1,0.5]];portConstraint=eastwest;rotatable=0;whiteSpace=wrap;html=1;fontSize=9;fontFamily=Verdana;flipH=1;direction=east;" parent="zj9nEusKQUSDWfUNJ4dz-4" vertex="1">
          <mxGeometry y="90" width="150" height="40" as="geometry" />
        </mxCell>
        <mxCell id="niL1JPbhFjUYnsxkRV-l-4" value="+ init_operate_symbol()" style="text;strokeColor=none;fillColor=none;align=left;verticalAlign=middle;spacingLeft=4;spacingRight=4;overflow=hidden;points=[[0,0.5],[1,0.5]];portConstraint=eastwest;rotatable=0;whiteSpace=wrap;html=1;fontSize=9;fontFamily=Verdana;flipH=1;direction=east;" vertex="1" parent="zj9nEusKQUSDWfUNJ4dz-4">
          <mxGeometry y="130" width="150" height="40" as="geometry" />
        </mxCell>
        <mxCell id="niL1JPbhFjUYnsxkRV-l-3" value="+ in_number_storage(int)" style="text;strokeColor=none;fillColor=none;align=left;verticalAlign=middle;spacingLeft=4;spacingRight=4;overflow=hidden;points=[[0,0.5],[1,0.5]];portConstraint=eastwest;rotatable=0;whiteSpace=wrap;html=1;fontSize=9;fontFamily=Verdana;flipH=1;direction=east;" vertex="1" parent="zj9nEusKQUSDWfUNJ4dz-4">
          <mxGeometry y="170" width="150" height="40" as="geometry" />
        </mxCell>
        <mxCell id="niL1JPbhFjUYnsxkRV-l-2" value="+ in_symbol_storage(char)" style="text;strokeColor=none;fillColor=none;align=left;verticalAlign=middle;spacingLeft=4;spacingRight=4;overflow=hidden;points=[[0,0.5],[1,0.5]];portConstraint=eastwest;rotatable=0;whiteSpace=wrap;html=1;fontSize=9;fontFamily=Verdana;flipH=1;direction=east;" vertex="1" parent="zj9nEusKQUSDWfUNJ4dz-4">
          <mxGeometry y="210" width="150" height="40" as="geometry" />
        </mxCell>
        <mxCell id="niL1JPbhFjUYnsxkRV-l-1" value="+ read_num_storage()" style="text;strokeColor=none;fillColor=none;align=left;verticalAlign=middle;spacingLeft=4;spacingRight=4;overflow=hidden;points=[[0,0.5],[1,0.5]];portConstraint=eastwest;rotatable=0;whiteSpace=wrap;html=1;fontSize=9;fontFamily=Verdana;flipH=1;direction=east;" vertex="1" parent="zj9nEusKQUSDWfUNJ4dz-4">
          <mxGeometry y="250" width="150" height="40" as="geometry" />
        </mxCell>
        <mxCell id="niL1JPbhFjUYnsxkRV-l-0" value="+ read_symbol_storage()" style="text;strokeColor=none;fillColor=none;align=left;verticalAlign=middle;spacingLeft=4;spacingRight=4;overflow=hidden;points=[[0,0.5],[1,0.5]];portConstraint=eastwest;rotatable=0;whiteSpace=wrap;html=1;fontSize=9;fontFamily=Verdana;flipH=1;direction=east;" vertex="1" parent="zj9nEusKQUSDWfUNJ4dz-4">
          <mxGeometry y="290" width="150" height="40" as="geometry" />
        </mxCell>
        <mxCell id="niL1JPbhFjUYnsxkRV-l-10" value="+ get_num_data()" style="text;strokeColor=none;fillColor=none;align=left;verticalAlign=middle;spacingLeft=4;spacingRight=4;overflow=hidden;points=[[0,0.5],[1,0.5]];portConstraint=eastwest;rotatable=0;whiteSpace=wrap;html=1;fontSize=9;fontFamily=Verdana;flipH=1;direction=east;" vertex="1" parent="zj9nEusKQUSDWfUNJ4dz-4">
          <mxGeometry y="330" width="150" height="40" as="geometry" />
        </mxCell>
        <mxCell id="niL1JPbhFjUYnsxkRV-l-9" value="+ get_symbol()" style="text;strokeColor=none;fillColor=none;align=left;verticalAlign=middle;spacingLeft=4;spacingRight=4;overflow=hidden;points=[[0,0.5],[1,0.5]];portConstraint=eastwest;rotatable=0;whiteSpace=wrap;html=1;fontSize=9;fontFamily=Verdana;flipH=1;direction=east;" vertex="1" parent="zj9nEusKQUSDWfUNJ4dz-4">
          <mxGeometry y="370" width="150" height="40" as="geometry" />
        </mxCell>
        <mxCell id="niL1JPbhFjUYnsxkRV-l-12" value="+ judge_symbol_priority(char)" style="text;strokeColor=none;fillColor=none;align=left;verticalAlign=middle;spacingLeft=4;spacingRight=4;overflow=hidden;points=[[0,0.5],[1,0.5]];portConstraint=eastwest;rotatable=0;whiteSpace=wrap;html=1;fontSize=9;fontFamily=Verdana;flipH=1;direction=east;" vertex="1" parent="zj9nEusKQUSDWfUNJ4dz-4">
          <mxGeometry y="410" width="150" height="40" as="geometry" />
        </mxCell>
        <mxCell id="niL1JPbhFjUYnsxkRV-l-11" style="text;strokeColor=none;fillColor=none;align=left;verticalAlign=middle;spacingLeft=4;spacingRight=4;overflow=hidden;points=[[0,0.5],[1,0.5]];portConstraint=eastwest;rotatable=0;whiteSpace=wrap;html=1;fontSize=9;fontFamily=Verdana;flipH=1;direction=east;" vertex="1" parent="zj9nEusKQUSDWfUNJ4dz-4">
          <mxGeometry y="450" width="150" height="40" as="geometry" />
        </mxCell>
        <mxCell id="zj9nEusKQUSDWfUNJ4dz-17" value="Expression" style="swimlane;fontStyle=0;childLayout=stackLayout;horizontal=1;startSize=30;horizontalStack=0;resizeParent=1;resizeParentMax=0;resizeLast=0;collapsible=1;marginBottom=0;whiteSpace=wrap;html=1;fontFamily=Verdana;fontSize=9;" parent="WIyWlLk6GJQsqaUBKTNV-1" vertex="1">
          <mxGeometry x="344" y="730" width="140" height="60" as="geometry" />
        </mxCell>
        <mxCell id="zj9nEusKQUSDWfUNJ4dz-18" value="+ evaluate()" style="text;strokeColor=none;fillColor=none;align=left;verticalAlign=middle;spacingLeft=4;spacingRight=4;overflow=hidden;points=[[0,0.5],[1,0.5]];portConstraint=eastwest;rotatable=0;whiteSpace=wrap;html=1;fontFamily=Verdana;fontSize=9;" parent="zj9nEusKQUSDWfUNJ4dz-17" vertex="1">
          <mxGeometry y="30" width="140" height="30" as="geometry" />
        </mxCell>
        <mxCell id="niL1JPbhFjUYnsxkRV-l-5" value="&lt;font style=&quot;font-size: 9px;&quot;&gt;Composition&lt;/font&gt;" style="text;html=1;strokeColor=none;fillColor=none;align=center;verticalAlign=middle;whiteSpace=wrap;rounded=0;" vertex="1" parent="WIyWlLk6GJQsqaUBKTNV-1">
          <mxGeometry x="520" y="210" width="60" height="30" as="geometry" />
        </mxCell>
        <mxCell id="niL1JPbhFjUYnsxkRV-l-6" value="" style="endArrow=classic;html=1;rounded=0;" edge="1" parent="WIyWlLk6GJQsqaUBKTNV-1">
          <mxGeometry width="50" height="50" relative="1" as="geometry">
            <mxPoint x="530" y="220" as="sourcePoint" />
            <mxPoint x="510" y="200" as="targetPoint" />
          </mxGeometry>
        </mxCell>
        <mxCell id="niL1JPbhFjUYnsxkRV-l-7" value="&lt;font style=&quot;font-size: 9px;&quot;&gt;Composition&lt;/font&gt;" style="text;html=1;strokeColor=none;fillColor=none;align=center;verticalAlign=middle;whiteSpace=wrap;rounded=0;" vertex="1" parent="WIyWlLk6GJQsqaUBKTNV-1">
          <mxGeometry x="260" y="210" width="60" height="30" as="geometry" />
        </mxCell>
        <mxCell id="niL1JPbhFjUYnsxkRV-l-8" value="" style="endArrow=classic;html=1;rounded=0;" edge="1" parent="WIyWlLk6GJQsqaUBKTNV-1">
          <mxGeometry width="50" height="50" relative="1" as="geometry">
            <mxPoint x="310" y="220" as="sourcePoint" />
            <mxPoint x="330" y="200" as="targetPoint" />
          </mxGeometry>
        </mxCell>
      </root>
    </mxGraphModel>
  </diagram>
</mxfile>
